<svg width="182" height="43" viewBox="0 0 182 43" fill="none" xmlns="http://www.w3.org/2000/svg">
<rect x="0.850586" y="1.29565" width="115.027" height="40.3859" stroke="#999999"/>
<path d="M27.7895 26.9133C27.528 26.861 27.3231 26.7521 27.175 26.5864C27.0268 26.4121 26.9527 26.2029 26.9527 25.9588C26.9527 25.7932 26.9919 25.6188 27.0703 25.4358L30.1954 17.9172C30.3 17.6557 30.5005 17.525 30.7969 17.525C31.0759 17.525 31.272 17.6557 31.3853 17.9172L34.5104 25.4358C34.5889 25.6188 34.6281 25.7932 34.6281 25.9588C34.6281 26.1942 34.554 26.399 34.4058 26.5734C34.2576 26.7477 34.0528 26.861 33.7913 26.9133L32.6668 24.1805H28.914L27.7895 26.9133ZM32.2876 23.1214L30.6008 18.8456L30.4962 18.8848L30.7315 19.4863L29.2932 23.1214H32.2876ZM38.0618 26.9133C37.3121 26.9133 36.7019 26.7085 36.2312 26.2988C35.7692 25.8804 35.5382 25.3268 35.5382 24.6382V22.4022C35.5382 21.9576 35.6472 21.5654 35.8651 21.2254C36.083 20.8767 36.3838 20.6108 36.7673 20.4278C37.1596 20.236 37.6085 20.1401 38.1141 20.1401C38.5238 20.1401 38.903 20.2273 39.2517 20.4016C39.6004 20.5673 39.9055 20.7895 40.167 21.0685L40.2062 21.0031C40.1452 20.9159 40.0537 20.8201 39.9316 20.7154V18.4141C39.9316 18.1265 40.0275 17.9085 40.2193 17.7603C40.4111 17.6034 40.6987 17.525 41.0823 17.525V25.985C41.0823 26.2726 40.9951 26.4993 40.8208 26.6649C40.6552 26.8305 40.3849 26.9133 40.0101 26.9133V26.1811C40.1321 26.0242 40.2149 25.9109 40.2585 25.8411L40.2193 25.7888C39.9404 26.1375 39.6309 26.4121 39.2909 26.6126C38.951 26.8131 38.5413 26.9133 38.0618 26.9133ZM38.3102 25.9065C38.7723 25.9065 39.1602 25.7888 39.474 25.5535C39.7878 25.3094 39.9447 25.0086 39.9447 24.6512V22.3891C39.9447 22.0405 39.7965 21.7484 39.5001 21.5131C39.2038 21.269 38.8028 21.1469 38.2972 21.1469C37.7829 21.1469 37.3819 21.2646 37.0942 21.5C36.8153 21.7266 36.6758 22.0448 36.6758 22.4545V24.5859C36.6758 25.013 36.8153 25.3399 37.0942 25.5665C37.3819 25.7932 37.7872 25.9065 38.3102 25.9065ZM45.302 26.9133C44.5523 26.9133 43.9421 26.7085 43.4714 26.2988C43.0094 25.8804 42.7784 25.3268 42.7784 24.6382V22.4022C42.7784 21.9576 42.8873 21.5654 43.1053 21.2254C43.3232 20.8767 43.6239 20.6108 44.0075 20.4278C44.3997 20.236 44.8487 20.1401 45.3543 20.1401C45.764 20.1401 46.1432 20.2273 46.4919 20.4016C46.8405 20.5673 47.1456 20.7895 47.4072 21.0685L47.4464 21.0031C47.3854 20.9159 47.2938 20.8201 47.1718 20.7154V18.4141C47.1718 18.1265 47.2677 17.9085 47.4595 17.7603C47.6512 17.6034 47.9389 17.525 48.3225 17.525V25.985C48.3225 26.2726 48.2353 26.4993 48.0609 26.6649C47.8953 26.8305 47.6251 26.9133 47.2503 26.9133V26.1811C47.3723 26.0242 47.4551 25.9109 47.4987 25.8411L47.4595 25.7888C47.1805 26.1375 46.8711 26.4121 46.5311 26.6126C46.1911 26.8131 45.7814 26.9133 45.302 26.9133ZM45.5504 25.9065C46.0124 25.9065 46.4003 25.7888 46.7141 25.5535C47.028 25.3094 47.1849 25.0086 47.1849 24.6512V22.3891C47.1849 22.0405 47.0367 21.7484 46.7403 21.5131C46.4439 21.269 46.0429 21.1469 45.5373 21.1469C45.023 21.1469 44.622 21.2646 44.3344 21.5C44.0554 21.7266 43.9159 22.0448 43.9159 22.4545V24.5859C43.9159 25.013 44.0554 25.3399 44.3344 25.5665C44.622 25.7932 45.0274 25.9065 45.5504 25.9065ZM56.1224 26.9133C55.5035 26.9133 55.0415 26.739 54.7364 26.3903C54.4313 26.0329 54.2788 25.5665 54.2788 24.9912V21.1731H53.0627C53.0627 20.8767 53.1281 20.6501 53.2588 20.4932C53.3896 20.3363 53.5683 20.2578 53.795 20.2578H54.2918V19.0156C54.2918 18.7279 54.3834 18.5187 54.5664 18.388C54.7582 18.2485 55.0415 18.1788 55.4163 18.1788V20.2578H57.1554C57.1554 20.868 56.8808 21.1731 56.3316 21.1731H55.4294V24.952C55.4294 25.3007 55.4904 25.5491 55.6125 25.6973C55.7432 25.8368 55.9742 25.9065 56.3055 25.9065C56.6106 25.9065 56.8983 25.8281 57.1685 25.6711C57.2818 25.7845 57.3385 25.937 57.3385 26.1288C57.3385 26.338 57.2295 26.5211 57.0116 26.678C56.7936 26.8349 56.4973 26.9133 56.1224 26.9133ZM60.8698 26.9133C60.3381 26.9133 59.8543 26.8131 59.4184 26.6126C58.9913 26.4121 58.6557 26.1419 58.4116 25.8019C58.1762 25.4532 58.0586 25.0653 58.0586 24.6382V22.4937C58.0586 22.0579 58.1762 21.6613 58.4116 21.3039C58.6557 20.9465 58.9913 20.6631 59.4184 20.4539C59.8456 20.2447 60.3294 20.1401 60.8698 20.1401C61.4103 20.1401 61.8941 20.2447 62.3212 20.4539C62.7571 20.6631 63.0927 20.9465 63.3281 21.3039C63.5721 21.6613 63.6942 22.0579 63.6942 22.4937V24.6382C63.6942 25.0653 63.5721 25.4532 63.3281 25.8019C63.084 26.1419 62.7484 26.4121 62.3212 26.6126C61.8941 26.8131 61.4103 26.9133 60.8698 26.9133ZM60.8698 25.9327C61.3929 25.9327 61.8069 25.8106 62.112 25.5665C62.4258 25.3137 62.5827 24.9868 62.5827 24.5859V22.533C62.5827 22.1145 62.4258 21.7746 62.112 21.5131C61.8069 21.2516 61.3929 21.1208 60.8698 21.1208C60.3555 21.1208 59.9415 21.2516 59.6276 21.5131C59.3138 21.7746 59.1569 22.1145 59.1569 22.533V24.5859C59.1569 24.9868 59.3095 25.3137 59.6146 25.5665C59.9284 25.8106 60.3468 25.9327 60.8698 25.9327ZM69.2029 26.7957C69.0286 26.7957 68.8804 26.739 68.7584 26.6257C68.6363 26.5123 68.5753 26.3772 68.5753 26.2203V18.218C68.5753 18.0524 68.6363 17.9172 68.7584 17.8126C68.8804 17.6993 69.0286 17.6427 69.2029 17.6427H72.838C73.5964 17.6427 74.1979 17.8693 74.6424 18.3226C75.0957 18.7759 75.3224 19.3861 75.3224 20.1532C75.3224 20.5629 75.2134 20.9465 74.9955 21.3039C74.7776 21.6613 74.4942 21.9271 74.1456 22.1015V22.1276C74.6424 22.2758 75.026 22.533 75.2962 22.8991C75.5665 23.2565 75.7016 23.6924 75.7016 24.2067C75.7016 24.7123 75.5926 25.1612 75.3747 25.5535C75.1655 25.9457 74.8691 26.2508 74.4855 26.4688C74.102 26.6867 73.6618 26.7957 73.1649 26.7957H69.2029ZM72.8118 21.6831C73.1692 21.6831 73.4743 21.5392 73.7271 21.2516C73.9887 20.9552 74.1194 20.5978 74.1194 20.1793C74.1194 19.7173 74.0017 19.3556 73.7664 19.0941C73.5397 18.8325 73.2215 18.7018 72.8118 18.7018H69.7913V21.6831H72.8118ZM73.0734 25.7365C73.5179 25.7365 73.8666 25.6058 74.1194 25.3443C74.3722 25.074 74.4986 24.6992 74.4986 24.2197C74.4986 23.7577 74.3722 23.396 74.1194 23.1345C73.8753 22.8729 73.5266 22.7422 73.0734 22.7422H69.7913V25.7365H73.0734ZM79.0459 26.9133C78.2962 26.9133 77.6904 26.7128 77.2284 26.3119C76.7751 25.9109 76.5484 25.3835 76.5484 24.7297C76.5484 24.0672 76.7881 23.5354 77.2676 23.1345C77.747 22.7247 78.379 22.5199 79.1636 22.5199C80.0004 22.5199 80.6891 22.8163 81.2295 23.409L81.2818 23.3567C81.1859 23.2521 81.077 23.1432 80.9549 23.0298V22.4807C80.9549 22.0361 80.8155 21.6918 80.5365 21.4477C80.2576 21.2036 79.8609 21.0816 79.3466 21.0816C78.4313 21.0816 77.7775 21.4433 77.3853 22.1669C77.2458 22.0971 77.1281 22.0056 77.0322 21.8923C76.9451 21.7702 76.9015 21.6482 76.9015 21.5261C76.9015 21.2908 77.0192 21.0685 77.2545 20.8593C77.4899 20.6414 77.7993 20.467 78.1829 20.3363C78.5752 20.2055 78.9849 20.1401 79.412 20.1401C80.2401 20.1401 80.8896 20.345 81.3603 20.7547C81.8397 21.1644 82.0795 21.731 82.0795 22.4545V26.0373C82.0795 26.3424 81.9923 26.5647 81.8179 26.7041C81.6436 26.8436 81.369 26.9133 80.9942 26.9133V26.2988C81.1772 26.107 81.2775 25.9937 81.2949 25.9588L81.2426 25.9065C80.676 26.5777 79.9438 26.9133 79.0459 26.9133ZM79.242 26.0111C79.7825 26.0111 80.2053 25.8978 80.5104 25.6711C80.8242 25.4445 80.9811 25.1307 80.9811 24.7297C80.9811 24.3287 80.8285 24.0105 80.5234 23.7752C80.2183 23.5398 79.7999 23.4221 79.2682 23.4221C78.7713 23.4221 78.379 23.5398 78.0914 23.7752C77.8124 24.0018 77.6729 24.32 77.6729 24.7297C77.6729 25.1394 77.8081 25.4576 78.0783 25.6842C78.3572 25.9021 78.7451 26.0111 79.242 26.0111ZM86.4494 29.5285C85.9961 29.5285 85.5733 29.4544 85.1811 29.3062C84.7888 29.158 84.4793 28.9575 84.2527 28.7047C84.026 28.4606 83.9127 28.1948 83.9127 27.9071C83.9127 27.6804 83.9868 27.5148 84.135 27.4102C84.2919 27.3056 84.5011 27.2533 84.7626 27.2533C84.7801 27.663 84.937 27.9855 85.2334 28.2209C85.5385 28.465 85.9438 28.587 86.4494 28.587C87.5652 28.587 88.1231 28.0466 88.1231 26.9656V26.2072C88.2451 26.1026 88.3367 26.0068 88.3977 25.9196L88.3584 25.8542C88.1057 26.1244 87.7875 26.3467 87.4039 26.5211C87.0291 26.6954 86.6499 26.7826 86.2663 26.7826C85.5167 26.7826 84.9021 26.5777 84.4227 26.168C83.9519 25.7496 83.7166 25.2004 83.7166 24.5205V22.4153C83.7166 21.9707 83.8255 21.5784 84.0435 21.2385C84.2701 20.8898 84.5752 20.6196 84.9588 20.4278C85.351 20.236 85.7825 20.1401 86.2533 20.1401C87.1075 20.1401 87.8223 20.515 88.3977 21.2646L88.45 21.2123L88.1885 20.8854C88.1885 20.6414 88.2713 20.4583 88.4369 20.3363C88.6112 20.2055 88.8902 20.1401 89.2737 20.1401V26.848C89.2737 27.371 89.1517 27.833 88.9076 28.234C88.6723 28.6437 88.341 28.9619 87.9139 29.1885C87.4867 29.4152 86.9986 29.5285 86.4494 29.5285ZM86.4755 25.7888C86.9376 25.7888 87.3298 25.6668 87.6524 25.4227C87.9749 25.1699 88.1362 24.8735 88.1362 24.5336V22.4022C88.1362 22.0448 87.9749 21.7441 87.6524 21.5C87.3385 21.2559 86.955 21.1339 86.5017 21.1339C85.9787 21.1339 85.5733 21.2516 85.2857 21.4869C84.998 21.7136 84.8542 22.0405 84.8542 22.4676V24.4682C84.8542 24.8779 84.9936 25.2004 85.2726 25.4358C85.5602 25.6711 85.9612 25.7888 86.4755 25.7888Z" fill="white"/>
<rect x="140.704" y="1.29565" width="40" height="40" stroke="#999999"/>
<path d="M162.443 30.0474C162.442 30.052 163.321 30.4201 163.305 30.4162C163.169 30.382 161.827 29.8177 161.827 29.8177C159.812 28.6714 157.438 26.5734 155.828 24.9196C154.239 23.2871 152.917 21.4583 151.88 19.4305C151.307 18.3111 151.079 17.6156 151.106 16.3267C151.121 15.5684 151.619 14.7497 152.21 14.2523C152.732 13.8118 153.239 13.5236 153.932 13.387C155.455 13.0868 156.775 13.6528 157.939 14.6164C159.018 15.5083 159.804 16.7437 160.421 17.9827C160.536 18.2149 160.708 18.6098 160.813 18.862C160.865 18.9887 160.935 19.3712 160.975 19.2401C161.06 18.9658 161.001 18.6228 161.073 18.3355C161.458 16.8164 162.524 15.3376 163.585 14.2187C164.17 13.6025 164.762 13.287 165.613 13.3674C166.556 13.4564 167.566 13.9722 168.03 14.8265C168.532 15.7503 168.403 17.0684 168.243 18.0499C167.624 21.8258 165.375 25.2672 163.305 28.4007C162.767 29.2158 162.2 30.0422 161.53 30.7587C161.195 31.1163 162.169 30.0167 162.476 29.6357C163.725 28.089 165.011 26.5644 166.131 24.9196C167.69 22.6298 168.906 20.1344 169.744 17.4926C170.086 16.4142 170.664 14.9144 170.004 13.8323C169.698 13.3309 169.32 12.8951 168.772 12.6504C166.909 11.8182 164.534 13.1107 163.076 14.1879C161.987 14.9922 161.029 16.1671 160.314 17.3105C160.158 17.5599 160.065 17.9506 159.883 17.5122C159.39 16.3224 158.864 15.2442 157.987 14.2776C156.574 12.7202 154.585 11.7951 152.473 12.2752C152.031 12.3756 151.71 12.4643 151.756 12.9865C151.79 13.3802 151.967 14.0776 152.081 14.4204C152.593 15.965 152.87 17.6131 153.614 19.052C155.741 23.1686 158.752 26.8371 162.373 29.7981" stroke="#AE0000" stroke-linecap="round"/>
</svg>
